HIERARCHY
ROOT Root
{
  OFFSET -4.36429 11.8871 9.90712
  CHANNELS 6 Xposition Yposition Zposition Zrotation Xrotation Yrotation
  JOINT Spine
  {
    OFFSET 5.3114 0 0
    CHANNELS 3 Zrotation Xrotation Yrotation
    JOINT Spine1
    {
      OFFSET 2.79004 0 0
      CHANNELS 3 Zrotation Xrotation Yrotation
      JOINT Neck
      {
        OFFSET 1.43377 0 0
        CHANNELS 3 Zrotation Xrotation Yrotation
        JOINT Head
        {
          OFFSET 1.86043 0 0
          CHANNELS 3 Zrotation Xrotation Yrotation
          End Site
          {
            OFFSET 0 0 0
          }
        }
      }
      JOINT LeftArm
      {
        OFFSET 0.0387506 0 2.55754
        CHANNELS 3 Zrotation Xrotation Yrotation
        JOINT LeftForeArm
        {
          OFFSET 4.24845 0 0
          CHANNELS 3 Zrotation Xrotation Yrotation
          JOINT LeftHand
          {
            OFFSET 4.01008 0 0
            CHANNELS 3 Zrotation Xrotation Yrotation
            End Site
            {
              OFFSET 0 0 0
            }
          }
        }
      }
      JOINT RightArm
      {
        OFFSET 0.0387506 0 -2.55754
        CHANNELS 3 Zrotation Xrotation Yrotation
        JOINT RightForeArm
        {
          OFFSET -4.24845 0 0
          CHANNELS 3 Zrotation Xrotation Yrotation
          JOINT RightHand
          {
            OFFSET -4.01009 0 0
            CHANNELS 3 Zrotation Xrotation Yrotation
            End Site
            {
              OFFSET 0 0 0
            }
          }
        }
      }
    }
  }
  JOINT LeftUpLeg
  {
    OFFSET -1.23318 0 2.05692
    CHANNELS 3 Zrotation Xrotation Yrotation
    JOINT LeftLeg
    {
      OFFSET 5.46397 0 0
      CHANNELS 3 Zrotation Xrotation Yrotation
      JOINT LeftFoot
      {
        OFFSET 4.68898 0 0
        CHANNELS 3 Zrotation Xrotation Yrotation
        End Site
        {
          OFFSET 0 0 0
        }
      }
    }
  }
  JOINT RightUpLeg
  {
    OFFSET -1.24454 0 -2.05007
    CHANNELS 3 Zrotation Xrotation Yrotation
    JOINT RightLeg
    {
      OFFSET -5.46397 0 0
      CHANNELS 3 Zrotation Xrotation Yrotation
      JOINT RightFoot
      {
        OFFSET -4.68901 0 0
        CHANNELS 3 Zrotation Xrotation Yrotation
        End Site
        {
          OFFSET 0 0 0
        }
      }
    }
  }
}
MOTION
Frames:	25
Frame Time:	0.0416667
-4.36429 11.8871 9.90712 -0 90 90 9.69808e-018 1.34041e-020 0.158382 1.41245e-030 7.06225e-031 2.48481e-017 -7.30747e-017 7.61111e-019 -1.19349 3.40995e-017 1.65719e-019 0.556895 -2.12238e-008 -1.53545e-005 -90.1584 -2.50273e-005 -2.47192e-012 6.55612e-006 1.52588e-005 -6.98387e-015 174.455 180 -4.60993e-005 -89.8417 -5.49628e-005 -2.25992e-011 3.612e-005 1.52588e-005 6.98387e-015 174.455 -3.96499 -0.249876 -175.995 -8.60175 0.176748 -0.869965 4.63073 -0.0778864 176.868 177.959 -0.126939 -176.037 -4.425 0.0845874 -0.877184 2.38097 -0.0336168 176.598 
-3.64577 11.8654 9.24699 -100.749 -24.7664 178.351 -3.3167 2.30532 3.40849 8.08117 0.826785 1.9969 -18.351 4.54921 2.93073 34.8051 8.16597 -11.6867 5.63415 -68.9872 -167.537 84.7823 25.2002 41.8606 -5.64782 -48.3347 171.905 178.776 -34.9026 -176.057 67.539 15.4197 36.1365 -10.5952 -64.5111 167.731 -35.0028 -9.98595 -178.515 -23.5249 -0.767259 -1.04226 18.6143 -11.8654 -179.43 165.809 -7.41435 179.69 -29.5288 -0.593438 -1.21242 -2.75217 11.6457 178.023 
-3.4002 11.8355 9.17141 -99.938 -15.2838 178.531 -3.33185 1.88346 2.73056 7.79485 0.704055 2.01685 -17.5488 4.07656 2.16199 32.9163 7.34254 -10.0887 15.0263 -63.0352 -156.037 81.7809 25.2317 38.9838 -5.7882 -49.0584 171.812 -177.597 -27.3113 -169.552 64.0604 14.9911 33.7557 -10.6558 -64.679 167.696 -33.3719 -10.8278 -177.633 -21.0708 -0.661938 -0.989809 17.9604 -12.4658 -179.353 168.392 -7.35006 -179.828 -26.9413 -0.488056 -1.15766 -3.50753 10.7505 178.126 
-3.13501 11.7907 9.04693 -100.133 -12.9189 178.523 -3.83443 1.81406 2.33833 8.01149 0.684369 2.04688 -17.4644 4.01701 1.68261 32.8449 7.27113 -9.34726 13.4776 -62.2386 -156.851 82.5285 25.688 39.133 -6.05235 -50.3151 171.61 -177.447 -22.2134 -169.141 65.6095 15.8205 34.3307 -12.3047 -67.6802 166.187 -33.5701 -9.94161 -176.747 -21.8016 -0.649847 -0.98871 18.0891 -13.2357 -179.247 169.511 -8.24298 -179.618 -26.6489 -0.45617 -1.13962 -4.7644 10.9351 178.337 
-2.8732 11.7442 8.89977 -100.287 -10.1781 178.696 -4.37527 1.53365 1.91843 8.28123 0.625906 2.35159 -17.7661 4.09541 1.09605 33.768 7.31469 -9.08228 10.0956 -60.4467 -160.329 82.8059 25.8575 39.1867 -5.87427 -49.475 171.746 -177.856 -16.4422 -167.586 68.304 17.3006 35.2803 -12.9818 -68.7211 165.559 -33.7378 -7.01533 -176.011 -24.0209 -0.604212 -1.02372 14.976 -13.5823 179.957 170.205 -9.51673 -179.064 -27.0954 -0.43249 -1.15656 -5.89185 11.0467 178.508 
-2.60982 11.7396 8.72326 -99.6187 -8.14377 179.253 -3.88264 1.0393 1.16877 8.41139 0.463205 2.17713 -17.8649 3.96148 1.12555 34.5034 7.10178 -8.85519 7.94044 -58.6144 -162.533 82.0545 25.3986 39.0385 -5.40485 -47.1146 172.097 -179.966 -9.56613 -166.023 70.6079 18.6003 36.0409 -11.1828 -65.7193 167.218 -33.2681 -4.43561 -175.929 -27.1937 -0.575673 -1.11645 10.8411 -13.4582 178.918 171.966 -10.4026 -178.026 -27.828 -0.420902 -1.17712 -5.94764 10.757 178.452 
-2.34105 11.7515 8.53311 -98.5618 -6.64155 179.839 -2.93638 0.338788 0.429255 8.43095 0.250135 2.07652 -17.7863 3.76483 0.617928 35.5219 6.79412 -8.03875 6.9914 -57.2902 -163.51 80.6676 24.5539 38.75 -5.40425 -47.0799 172.097 176.677 -1.88119 -164.05 73.4222 20.2254 36.9034 -9.0118 -60.8147 169.159 -32.0504 -2.79628 -176.268 -30.1465 -0.627883 -1.21837 10.6889 -11.4943 178.597 173.912 -11.1146 -176.844 -29.4512 -0.431268 -1.22735 -5.33679 9.60808 178.174 
-2.06795 11.7808 8.34141 -97.975 -4.65944 -179.445 -2.80669 0.212437 -0.439833 8.3069 0.204062 2.08475 -17.3757 3.47286 -0.0513727 37.6378 6.29502 -7.30494 7.09184 -55.9236 -164.197 79.3543 23.7576 38.4569 -5.46825 -47.3965 172.05 171.85 5.88519 -161.919 76.7727 22.2055 37.8278 -6.62906 -52.8425 171.158 -29.9239 -1.85548 -177.059 -31.4314 -0.698535 -1.25826 13.2283 -10.9776 178.964 174.577 -11.8369 -175.231 -32.4187 -0.444285 -1.32587 -5.46015 6.96672 177.767 
-1.78213 11.8195 8.13976 -97.4228 -3.21908 -178.783 -2.96394 -0.546841 -0.975345 8.22613 -0.0276846 1.99474 -16.3673 3.3109 -0.614854 39.5453 5.95134 -7.24371 7.76993 -53.469 -165.164 78.34 23.1454 38.2177 -5.31754 -46.6759 172.16 166.76 11.1239 -159.329 80.8184 24.6456 38.7828 -4.54851 -42.1903 172.699 -27.1624 -0.41043 -178.021 -31.1956 -0.734878 -1.25187 14.8802 -10.5501 179.161 174.39 -12.0426 -173.642 -37.0055 -0.490692 -1.43017 -5.70998 3.19819 177.153 
-1.50563 11.861 7.95017 -97.2326 -1.93609 -178.594 -3.023 -1.20761 -0.921993 8.27923 -0.237489 1.70244 -15.893 3.10594 -0.754447 40.8834 5.49965 -7.43327 8.53289 -51.1642 -165.46 77.7457 22.7881 38.0725 -5.33711 -46.8008 172.146 162.198 13.0395 -156.705 85.1002 27.262 39.5962 -2.97305 -30.6614 173.64 -24.9425 0.597059 -178.696 -31.0103 -0.772489 -1.24795 16.7708 -9.9002 179.318 172.344 -13.2626 -173.069 -43.4269 -0.583598 -1.58644 -5.39832 -2.01521 176.316 
-1.2481 11.8819 7.78124 -97.6037 -0.948877 -178.606 -3.20664 -1.61991 -0.805396 8.37278 -0.355935 1.683 -15.6913 2.86842 -0.851557 41.1924 4.93929 -7.57216 9.36484 -49.4551 -165.053 77.4889 22.634 38.0083 -5.48698 -47.5593 172.037 160.062 11.2393 -154.377 88.7382 29.4925 40.1203 -1.63425 -18.0548 174.195 -23.5156 0.741363 -179.448 -30.7631 -0.829226 -1.24193 18.8269 -9.64369 179.638 168.459 -14.9568 -173.603 -51.0018 -0.69132 -1.8113 -4.34508 -6.30014 175.839 
-0.988203 11.9061 7.62319 -97.9283 -0.205372 -178.646 -3.15898 -1.66747 -0.711385 8.72179 -0.352199 1.81506 -15.5677 2.62313 -1.01794 40.6433 4.35308 -7.58085 10.1501 -48.6151 -163.632 77.0442 22.3676 37.8959 -5.59245 -48.0786 171.959 160.716 7.25851 -153.448 90.8548 30.786 40.3519 -0.503736 -5.73813 174.429 -21.926 1.62631 179.992 -30.1654 -0.873629 -1.22482 19.9417 -9.15113 179.806 163.997 -16.5113 -175.156 -57.5074 -0.793877 -2.02564 -1.32627 -7.01268 176.172 
-0.731278 11.9168 7.47062 -98.217 0.579415 -178.864 -2.94645 -1.25918 -0.131135 8.69559 -0.232985 1.76645 -15.4076 2.31788 -1.72609 40.715 3.76996 -6.94371 10.7287 -48.2421 -162.348 76.3375 21.9457 37.7127 -5.59178 -48.0873 171.959 165.263 1.29904 -153.584 89.7715 30.1247 40.2397 0.580641 6.60717 174.421 -20.4237 2.29195 179.586 -29.9623 -0.922546 -1.22842 21.4797 -8.56169 -179.997 159.321 -16.7832 -177.142 -60.9498 -0.871217 -2.14752 1.38705 -4.96431 176.647 
-0.467808 11.897 7.31975 -98.22 0.392316 -179.098 -2.34911 -1.17048 0.390149 8.58686 -0.19896 1.79684 -15.5121 1.75433 -2.51189 41.198 2.79666 -5.84485 10.5439 -48.1986 -161.641 75.4876 21.4407 37.4859 -5.61858 -48.2274 171.939 170.796 -5.254 -153.779 82.0638 25.3997 38.9959 1.65857 18.305 174.187 -19.5533 2.69493 179.077 -31.0001 -0.962655 -1.2447 23.1693 -7.50111 179.986 155.417 -15.3784 -178.863 -61.3015 -0.937088 -2.15554 2.29064 -2.18585 176.866 
-0.18701 11.8593 7.17198 -98.2986 0.0505618 -179.127 -2.08571 -1.00545 0.42998 8.68988 -0.133229 1.9786 -15.3997 0.962269 -3.07374 41.22 1.4874 -4.53411 9.9415 -48.054 -161.582 75.0168 21.1623 37.3582 -5.75782 -48.8877 171.835 173.721 -10.5905 -152.564 68.2559 17.2833 35.2118 2.85618 29.6633 173.699 -18.4523 3.26426 178.425 -31.7957 -1.00206 -1.26279 24.6488 -6.42899 179.896 151.751 -13.294 -179.987 -58.9468 -0.992219 -2.07806 2.0185 0.554983 176.985 
0.0985487 11.7982 7.04563 -98.2433 0.627201 -178.687 -1.37512 0.358236 -0.119442 8.72933 0.275198 2.17285 -15.7783 -0.116452 -3.90999 41.1727 -0.404648 -2.80333 8.97283 -48.1184 -161.635 74.7498 21.0046 37.2869 -5.85688 -49.3494 171.76 174.065 -16.4153 -150.047 51.9912 9.19563 28.6059 4.08336 39.1423 173.003 -16.8724 4.38167 177.512 -32.4184 -1.05831 -1.27235 26.2828 -5.82784 179.944 148.193 -11.8029 179.295 -55.009 -1.03758 -1.94572 0.906831 2.88068 177.105 
0.401387 11.754 6.94555 -98.2792 0.955718 -178.111 -0.489086 2.24261 -0.642753 8.57623 0.842074 2.49701 -16.027 -1.40978 -5.42448 40.6019 -2.82706 -0.712048 7.78611 -48.9281 -161.667 74.4337 20.8183 37.1988 -5.81759 -49.1803 171.789 175.458 -20.8997 -148.454 38.8146 4.27528 22.096 3.82261 37.308 173.164 -14.6699 5.19434 176.372 -31.8151 -1.10403 -1.25448 27.6418 -5.42838 -179.994 145.1 -10.8374 179.029 -49.8423 -1.04593 -1.79325 0.111948 4.82395 177.172 
0.732125 11.7411 6.86503 -98.503 -0.402235 -177.937 0.0509997 2.71868 -0.487314 8.36436 1.00397 2.81981 -15.6329 -2.49117 -6.76571 39.6334 -4.86318 0.925356 6.88431 -49.2562 -162.061 74.3952 20.7957 37.1871 -5.76546 -48.9457 171.829 174.748 -17.1008 -151.794 34.5894 3.0615 19.8379 3.50814 34.9697 173.349 -12.3671 5.04611 175.585 -29.9278 -1.08939 -1.21043 27.6575 -4.50351 179.611 143.264 -10.3057 179.341 -43.1078 -1.03893 -1.5863 0.545729 5.02036 177.065 
1.10044 11.7334 6.79761 -98.653 -2.37441 -177.856 0.0250903 1.59469 -0.154321 8.4858 0.714139 3.16351 -15.1048 -3.03726 -7.73133 39.2347 -5.81394 1.99697 6.41648 -47.8668 -163.383 74.4708 20.8402 37.2087 -5.70264 -48.6516 171.876 175.874 -15.0467 -154.826 36.501 3.59401 20.864 3.46281 34.6117 173.374 -9.48707 4.62242 174.955 -27.3421 -1.04122 -1.15375 27.0187 -4.45437 179.477 142.171 -10.5535 179.953 -35.8938 -0.927449 -1.40079 0.390574 4.02412 177.006 
1.47324 11.7126 6.74487 -98.3109 -3.58533 -177.535 0.29525 0.375073 0.0912401 8.5645 0.372527 3.17206 -14.8551 -3.31132 -8.02356 39.5428 -6.30505 2.19956 6.6992 -45.6808 -164.557 74.1001 20.6222 37.1002 -5.69202 -48.5876 171.884 177.381 -14.7736 -156.916 39.7785 4.57436 22.6043 3.27743 33.1586 173.478 -5.86558 3.63971 174.193 -24.5139 -1.01324 -1.09778 27.0326 -4.11155 179.317 141.98 -12.1073 -179.49 -30.0633 -0.797188 -1.25684 -1.06942 1.67227 176.998 
1.83613 11.6848 6.71525 -97.9274 -3.99313 -177.145 0.502795 -0.473615 0.118585 8.6627 0.146865 3.31608 -14.7579 -3.48978 -8.02233 39.4336 -6.68273 2.17341 7.0257 -43.6915 -165.517 73.1167 20.0471 36.8133 -5.62431 -48.2449 171.935 178.804 -14.0072 -158.289 43.8636 5.94962 24.7083 3.15236 32.1675 173.549 -2.09054 2.12813 173.419 -21.3567 -0.999292 -1.05128 27.4274 -4.14678 179.446 141.37 -14.1166 -179.428 -27.6384 -0.737379 -1.19725 -2.21488 0.418284 176.894 
2.18451 11.6396 6.71101 -97.531 -4.3319 -177.125 0.411368 -0.990568 0.435486 8.8257 0.0215638 3.51972 -14.7833 -3.73496 -8.36422 39.1114 -7.15615 2.6761 7.52277 -42.6728 -165.799 71.706 19.2298 36.3862 -5.42092 -47.1979 172.085 -179.223 -12.1778 -159.73 49.8388 8.2529 27.6409 3.21154 32.65 173.517 0.693556 0.719057 173.24 -20.1183 -1.01722 -1.03712 28.0908 -4.87285 179.964 141.318 -14.0468 -179.766 -28.9112 -0.747927 -1.22895 -2.17041 -1.82019 176.929 
2.52838 11.6261 6.72532 -97.1213 -4.91291 -177.541 0.0452434 -1.61264 1.24449 9.03969 -0.146646 3.53678 -14.664 -3.95392 -8.57016 38.7787 -7.59181 2.93267 8.11941 -42.117 -165.504 69.9869 18.2468 35.8414 -5.20521 -46.04 172.242 -177.285 -9.31042 -161.71 57.574 11.7125 31.1414 3.28515 33.242 173.475 2.59643 -0.237628 173.856 -20.6546 -1.03384 -1.04203 28.4352 -5.02194 -179.875 142.028 -13.4272 179.501 -31.9117 -0.795618 -1.29677 -2.43637 -3.36799 176.948 
2.89298 11.657 6.74966 -96.5127 -5.44949 -177.987 -0.247189 -2.53333 2.28706 9.25959 -0.410937 3.38263 -14.5457 -3.84938 -8.56109 38.9348 -7.45554 2.57599 8.67195 -41.0763 -165.513 68.1251 17.2011 35.2185 -5.03123 -45.0687 172.366 -175.687 -5.84878 -164.082 66.4732 16.2963 34.6333 3.20716 32.5969 173.517 4.66311 -0.615231 174.781 -21.485 -1.01935 -1.05142 27.1509 -5.58411 -179.787 143.587 -12.4712 178.935 -33.5476 -0.825721 -1.32955 -3.23951 -1.73273 176.922 
3.26406 11.7181 6.77583 -95.9761 -6.0121 -178.136 -0.691995 -3.64623 3.02425 9.52034 -0.726059 3.27323 -14.4693 -3.38367 -8.3032 39.3527 -6.59739 1.91202 9.06465 -39.819 -166.034 66.3743 16.2362 34.6059 -4.91306 -44.3896 172.449 -174.503 -3.78218 -165.307 74.8699 21.0755 37.316 2.85545 29.6573 173.699 5.95758 0.0375552 175.752 -23.4658 -0.996866 -1.07631 23.7522 -6.14872 179.925 146.02 -10.9323 179.023 -34.0593 -0.807949 -1.34821 -4.55319 0.193105 176.975 
